<?xml version="1.0" encoding="UTF-8" standalone="no"?>
<svg
   id="Layer_1"
   viewBox="0 0 204.89999 179.22"
   version="1.1"
   sodipodi:docname="reddit-white.svg"
   width="204.89999"
   height="179.22"
   inkscape:version="1.2.2 (b0a8486541, 2022-12-01)"
   xmlns:inkscape="http://www.inkscape.org/namespaces/inkscape"
   xmlns:sodipodi="http://sodipodi.sourceforge.net/DTD/sodipodi-0.dtd"
   xmlns="http://www.w3.org/2000/svg"
   xmlns:svg="http://www.w3.org/2000/svg">
  <sodipodi:namedview
     id="namedview9"
     pagecolor="#ffffff"
     bordercolor="#666666"
     borderopacity="1.0"
     inkscape:showpageshadow="2"
     inkscape:pageopacity="0.0"
     inkscape:pagecheckerboard="true"
     inkscape:deskcolor="#d1d1d1"
     showgrid="false"
     inkscape:zoom="1.8589174"
     inkscape:cx="33.352746"
     inkscape:cy="59.174227"
     inkscape:window-width="1600"
     inkscape:window-height="839"
     inkscape:window-x="0"
     inkscape:window-y="0"
     inkscape:window-maximized="1"
     inkscape:current-layer="Layer_1" />
  <defs
     id="defs4">
    <style
       id="style2">.cls-1{fill:#ffffff;stroke-width:0px;}</style>
  </defs>
  <path
     class="cls-1"
     d="m 175.01,59.64 c -6.85,0 -13.16,2.31 -18.2,6.19 C 143.09,57.34 125.77,52 106.82,51.29 c 0,-0.03 0,-0.05 0,-0.08 0,-12.7 9.44,-23.24 21.68,-24.97 2.22,9.41 10.67,16.42 20.76,16.42 11.78,0 21.33,-9.55 21.33,-21.33 C 170.59,9.55 161.04,0 149.26,0 c -10.3,0 -18.89,7.3 -20.89,17.01 -17.25,1.85 -30.72,16.48 -30.72,34.21 0,0.04 0,0.07 0,0.11 C 78.89,52.12 61.76,57.46 48.16,65.89 43.11,61.98 36.77,59.65 29.89,59.65 13.38,59.65 0,73.03 0,89.54 c 0,11.98 7.04,22.3 17.21,27.07 0.99,34.7 38.8,62.61 85.31,62.61 46.51,0 84.37,-27.94 85.31,-62.67 10.09,-4.8 17.07,-15.09 17.07,-27 0,-16.51 -13.38,-29.89 -29.89,-29.89 z"
     id="path6" />
</svg>
